<mxfile host="app.diagrams.net" modified="2022-11-10T03:12:13.227Z" agent="5.0 (Windows)" etag="35xSZfpJa9QdSgPmJgik" version="20.4.1" type="github">
  <diagram id="y0n-7LMCv3FKrw9qtX-e" name="Page-1">
    <mxGraphModel dx="769" dy="412" grid="1" gridSize="10" guides="1" tooltips="1" connect="1" arrows="1" fold="1" page="1" pageScale="1" pageWidth="1700" pageHeight="1100" math="0" shadow="0">
      <root>
        <mxCell id="0" />
        <mxCell id="1" parent="0" />
        <mxCell id="8VUWCOIowGorcXHwF0OQ-40" style="edgeStyle=orthogonalEdgeStyle;rounded=0;orthogonalLoop=1;jettySize=auto;html=1;entryX=0.5;entryY=0;entryDx=0;entryDy=0;" edge="1" parent="1" source="8VUWCOIowGorcXHwF0OQ-2" target="8VUWCOIowGorcXHwF0OQ-12">
          <mxGeometry relative="1" as="geometry" />
        </mxCell>
        <mxCell id="8VUWCOIowGorcXHwF0OQ-2" value="Display" style="shape=process;whiteSpace=wrap;html=1;backgroundOutline=1;" vertex="1" parent="1">
          <mxGeometry x="840" y="440" width="120" height="60" as="geometry" />
        </mxCell>
        <mxCell id="8VUWCOIowGorcXHwF0OQ-33" style="edgeStyle=orthogonalEdgeStyle;rounded=0;orthogonalLoop=1;jettySize=auto;html=1;entryX=0;entryY=0.5;entryDx=0;entryDy=0;" edge="1" parent="1" source="8VUWCOIowGorcXHwF0OQ-3" target="8VUWCOIowGorcXHwF0OQ-32">
          <mxGeometry relative="1" as="geometry" />
        </mxCell>
        <mxCell id="8VUWCOIowGorcXHwF0OQ-3" value="Registration" style="shape=process;whiteSpace=wrap;html=1;backgroundOutline=1;" vertex="1" parent="1">
          <mxGeometry x="230" y="80" width="120" height="50" as="geometry" />
        </mxCell>
        <mxCell id="8VUWCOIowGorcXHwF0OQ-16" style="edgeStyle=orthogonalEdgeStyle;rounded=0;orthogonalLoop=1;jettySize=auto;html=1;" edge="1" parent="1" source="8VUWCOIowGorcXHwF0OQ-4" target="8VUWCOIowGorcXHwF0OQ-12">
          <mxGeometry relative="1" as="geometry">
            <Array as="points">
              <mxPoint x="140" y="210" />
              <mxPoint x="140" y="655" />
            </Array>
          </mxGeometry>
        </mxCell>
        <mxCell id="8VUWCOIowGorcXHwF0OQ-18" style="edgeStyle=orthogonalEdgeStyle;rounded=0;orthogonalLoop=1;jettySize=auto;html=1;entryX=0.5;entryY=0;entryDx=0;entryDy=0;" edge="1" parent="1" source="8VUWCOIowGorcXHwF0OQ-4" target="8VUWCOIowGorcXHwF0OQ-13">
          <mxGeometry relative="1" as="geometry" />
        </mxCell>
        <mxCell id="8VUWCOIowGorcXHwF0OQ-19" style="edgeStyle=orthogonalEdgeStyle;rounded=0;orthogonalLoop=1;jettySize=auto;html=1;entryX=0.5;entryY=0;entryDx=0;entryDy=0;" edge="1" parent="1" source="8VUWCOIowGorcXHwF0OQ-4" target="8VUWCOIowGorcXHwF0OQ-10">
          <mxGeometry relative="1" as="geometry">
            <Array as="points">
              <mxPoint x="290" y="160" />
              <mxPoint x="620" y="160" />
              <mxPoint x="620" y="50" />
              <mxPoint x="890" y="50" />
            </Array>
          </mxGeometry>
        </mxCell>
        <mxCell id="8VUWCOIowGorcXHwF0OQ-21" style="edgeStyle=orthogonalEdgeStyle;rounded=0;orthogonalLoop=1;jettySize=auto;html=1;entryX=0.5;entryY=0;entryDx=0;entryDy=0;" edge="1" parent="1" source="8VUWCOIowGorcXHwF0OQ-4" target="8VUWCOIowGorcXHwF0OQ-11">
          <mxGeometry relative="1" as="geometry">
            <Array as="points">
              <mxPoint x="290" y="150" />
              <mxPoint x="600" y="150" />
              <mxPoint x="600" y="40" />
              <mxPoint x="1430" y="40" />
            </Array>
          </mxGeometry>
        </mxCell>
        <mxCell id="8VUWCOIowGorcXHwF0OQ-4" value="Login " style="shape=process;whiteSpace=wrap;html=1;backgroundOutline=1;" vertex="1" parent="1">
          <mxGeometry x="230" y="180" width="120" height="60" as="geometry" />
        </mxCell>
        <mxCell id="8VUWCOIowGorcXHwF0OQ-5" value="Host Performance Data" style="swimlane;fontStyle=0;childLayout=stackLayout;horizontal=1;startSize=20;fillColor=#ffffff;horizontalStack=0;resizeParent=1;resizeParentMax=0;resizeLast=0;collapsible=0;marginBottom=0;swimlaneFillColor=#ffffff;rounded=1;" vertex="1" parent="1">
          <mxGeometry x="585" y="310" width="130" height="30" as="geometry" />
        </mxCell>
        <mxCell id="8VUWCOIowGorcXHwF0OQ-8" style="edgeStyle=orthogonalEdgeStyle;rounded=0;orthogonalLoop=1;jettySize=auto;html=1;entryX=0;entryY=0.5;entryDx=0;entryDy=0;" edge="1" parent="1" source="8VUWCOIowGorcXHwF0OQ-7" target="8VUWCOIowGorcXHwF0OQ-3">
          <mxGeometry relative="1" as="geometry" />
        </mxCell>
        <mxCell id="8VUWCOIowGorcXHwF0OQ-7" value="Applicant" style="html=1;dashed=0;whitespace=wrap;rounded=0;" vertex="1" parent="1">
          <mxGeometry x="40" y="80" width="100" height="50" as="geometry" />
        </mxCell>
        <mxCell id="8VUWCOIowGorcXHwF0OQ-41" style="edgeStyle=orthogonalEdgeStyle;rounded=0;orthogonalLoop=1;jettySize=auto;html=1;" edge="1" parent="1" source="8VUWCOIowGorcXHwF0OQ-10" target="8VUWCOIowGorcXHwF0OQ-22">
          <mxGeometry relative="1" as="geometry">
            <Array as="points">
              <mxPoint x="840" y="170" />
              <mxPoint x="510" y="170" />
            </Array>
          </mxGeometry>
        </mxCell>
        <mxCell id="8VUWCOIowGorcXHwF0OQ-42" style="edgeStyle=orthogonalEdgeStyle;rounded=0;orthogonalLoop=1;jettySize=auto;html=1;" edge="1" parent="1" source="8VUWCOIowGorcXHwF0OQ-10" target="8VUWCOIowGorcXHwF0OQ-23">
          <mxGeometry relative="1" as="geometry">
            <Array as="points">
              <mxPoint x="850" y="180" />
              <mxPoint x="650" y="180" />
            </Array>
          </mxGeometry>
        </mxCell>
        <mxCell id="8VUWCOIowGorcXHwF0OQ-43" style="edgeStyle=orthogonalEdgeStyle;rounded=0;orthogonalLoop=1;jettySize=auto;html=1;" edge="1" parent="1" source="8VUWCOIowGorcXHwF0OQ-10" target="8VUWCOIowGorcXHwF0OQ-24">
          <mxGeometry relative="1" as="geometry">
            <Array as="points">
              <mxPoint x="860" y="190" />
              <mxPoint x="780" y="190" />
            </Array>
          </mxGeometry>
        </mxCell>
        <mxCell id="8VUWCOIowGorcXHwF0OQ-44" style="edgeStyle=orthogonalEdgeStyle;rounded=0;orthogonalLoop=1;jettySize=auto;html=1;entryX=0.417;entryY=-0.028;entryDx=0;entryDy=0;entryPerimeter=0;" edge="1" parent="1" source="8VUWCOIowGorcXHwF0OQ-10" target="8VUWCOIowGorcXHwF0OQ-25">
          <mxGeometry relative="1" as="geometry">
            <Array as="points">
              <mxPoint x="880" y="208" />
            </Array>
          </mxGeometry>
        </mxCell>
        <mxCell id="8VUWCOIowGorcXHwF0OQ-45" style="edgeStyle=orthogonalEdgeStyle;rounded=0;orthogonalLoop=1;jettySize=auto;html=1;entryX=0.5;entryY=0;entryDx=0;entryDy=0;" edge="1" parent="1" source="8VUWCOIowGorcXHwF0OQ-10" target="8VUWCOIowGorcXHwF0OQ-26">
          <mxGeometry relative="1" as="geometry">
            <Array as="points">
              <mxPoint x="900" y="190" />
              <mxPoint x="1040" y="190" />
            </Array>
          </mxGeometry>
        </mxCell>
        <mxCell id="8VUWCOIowGorcXHwF0OQ-46" style="edgeStyle=orthogonalEdgeStyle;rounded=0;orthogonalLoop=1;jettySize=auto;html=1;" edge="1" parent="1" source="8VUWCOIowGorcXHwF0OQ-10" target="8VUWCOIowGorcXHwF0OQ-27">
          <mxGeometry relative="1" as="geometry">
            <Array as="points">
              <mxPoint x="910" y="180" />
              <mxPoint x="1170" y="180" />
            </Array>
          </mxGeometry>
        </mxCell>
        <mxCell id="8VUWCOIowGorcXHwF0OQ-47" style="edgeStyle=orthogonalEdgeStyle;rounded=0;orthogonalLoop=1;jettySize=auto;html=1;" edge="1" parent="1" source="8VUWCOIowGorcXHwF0OQ-10" target="8VUWCOIowGorcXHwF0OQ-28">
          <mxGeometry relative="1" as="geometry">
            <Array as="points">
              <mxPoint x="920" y="170" />
              <mxPoint x="1300" y="170" />
            </Array>
          </mxGeometry>
        </mxCell>
        <mxCell id="8VUWCOIowGorcXHwF0OQ-10" value="Admin" style="html=1;dashed=0;whitespace=wrap;rounded=0;" vertex="1" parent="1">
          <mxGeometry x="840" y="90" width="100" height="50" as="geometry" />
        </mxCell>
        <mxCell id="8VUWCOIowGorcXHwF0OQ-49" style="edgeStyle=orthogonalEdgeStyle;rounded=0;orthogonalLoop=1;jettySize=auto;html=1;entryX=0.5;entryY=0;entryDx=0;entryDy=0;" edge="1" parent="1" source="8VUWCOIowGorcXHwF0OQ-11" target="8VUWCOIowGorcXHwF0OQ-31">
          <mxGeometry relative="1" as="geometry">
            <mxPoint x="1430" y="200" as="targetPoint" />
          </mxGeometry>
        </mxCell>
        <mxCell id="8VUWCOIowGorcXHwF0OQ-50" style="edgeStyle=orthogonalEdgeStyle;rounded=0;orthogonalLoop=1;jettySize=auto;html=1;entryX=0.75;entryY=0;entryDx=0;entryDy=0;" edge="1" parent="1" source="8VUWCOIowGorcXHwF0OQ-11" target="8VUWCOIowGorcXHwF0OQ-28">
          <mxGeometry relative="1" as="geometry" />
        </mxCell>
        <mxCell id="8VUWCOIowGorcXHwF0OQ-11" value="Super Admin" style="html=1;dashed=0;whitespace=wrap;rounded=0;" vertex="1" parent="1">
          <mxGeometry x="1380" y="100" width="100" height="50" as="geometry" />
        </mxCell>
        <mxCell id="8VUWCOIowGorcXHwF0OQ-12" value="Host" style="html=1;dashed=0;whitespace=wrap;rounded=0;" vertex="1" parent="1">
          <mxGeometry x="850" y="630" width="100" height="50" as="geometry" />
        </mxCell>
        <mxCell id="8VUWCOIowGorcXHwF0OQ-13" value="Audit Login" style="swimlane;fontStyle=0;childLayout=stackLayout;horizontal=1;startSize=20;fillColor=#ffffff;horizontalStack=0;resizeParent=1;resizeParentMax=0;resizeLast=0;collapsible=0;marginBottom=0;swimlaneFillColor=#ffffff;rounded=1;" vertex="1" parent="1">
          <mxGeometry x="225" y="310" width="130" height="30" as="geometry" />
        </mxCell>
        <mxCell id="8VUWCOIowGorcXHwF0OQ-22" value="Profile Settings" style="shape=process;whiteSpace=wrap;html=1;backgroundOutline=1;" vertex="1" parent="1">
          <mxGeometry x="450" y="210" width="120" height="60" as="geometry" />
        </mxCell>
        <mxCell id="8VUWCOIowGorcXHwF0OQ-23" value="Performance" style="shape=process;whiteSpace=wrap;html=1;backgroundOutline=1;" vertex="1" parent="1">
          <mxGeometry x="590" y="210" width="120" height="60" as="geometry" />
        </mxCell>
        <mxCell id="8VUWCOIowGorcXHwF0OQ-24" value="Help" style="shape=process;whiteSpace=wrap;html=1;backgroundOutline=1;" vertex="1" parent="1">
          <mxGeometry x="720" y="210" width="120" height="60" as="geometry" />
        </mxCell>
        <mxCell id="8VUWCOIowGorcXHwF0OQ-25" value="Calendar" style="shape=process;whiteSpace=wrap;html=1;backgroundOutline=1;" vertex="1" parent="1">
          <mxGeometry x="850" y="210" width="120" height="60" as="geometry" />
        </mxCell>
        <mxCell id="8VUWCOIowGorcXHwF0OQ-26" value="Host Management" style="shape=process;whiteSpace=wrap;html=1;backgroundOutline=1;" vertex="1" parent="1">
          <mxGeometry x="980" y="210" width="120" height="60" as="geometry" />
        </mxCell>
        <mxCell id="8VUWCOIowGorcXHwF0OQ-27" value="Announcement" style="shape=process;whiteSpace=wrap;html=1;backgroundOutline=1;" vertex="1" parent="1">
          <mxGeometry x="1110" y="210" width="120" height="60" as="geometry" />
        </mxCell>
        <mxCell id="8VUWCOIowGorcXHwF0OQ-28" value="Reports" style="shape=process;whiteSpace=wrap;html=1;backgroundOutline=1;" vertex="1" parent="1">
          <mxGeometry x="1240" y="210" width="120" height="60" as="geometry" />
        </mxCell>
        <mxCell id="8VUWCOIowGorcXHwF0OQ-31" value="Admin Management" style="shape=process;whiteSpace=wrap;html=1;backgroundOutline=1;" vertex="1" parent="1">
          <mxGeometry x="1370" y="210" width="120" height="60" as="geometry" />
        </mxCell>
        <mxCell id="8VUWCOIowGorcXHwF0OQ-32" value="Pending Host Data" style="swimlane;fontStyle=0;childLayout=stackLayout;horizontal=1;startSize=20;fillColor=#ffffff;horizontalStack=0;resizeParent=1;resizeParentMax=0;resizeLast=0;collapsible=0;marginBottom=0;swimlaneFillColor=#ffffff;rounded=1;" vertex="1" parent="1">
          <mxGeometry x="440" y="90" width="130" height="30" as="geometry" />
        </mxCell>
        <mxCell id="8VUWCOIowGorcXHwF0OQ-35" value="Admin Data" style="swimlane;fontStyle=0;childLayout=stackLayout;horizontal=1;startSize=20;fillColor=#ffffff;horizontalStack=0;resizeParent=1;resizeParentMax=0;resizeLast=0;collapsible=0;marginBottom=0;swimlaneFillColor=#ffffff;rounded=1;" vertex="1" parent="1">
          <mxGeometry x="1390" y="310" width="105" height="30" as="geometry" />
        </mxCell>
        <mxCell id="8VUWCOIowGorcXHwF0OQ-36" value="Announcement Data" style="swimlane;fontStyle=0;childLayout=stackLayout;horizontal=1;startSize=20;fillColor=#ffffff;horizontalStack=0;resizeParent=1;resizeParentMax=0;resizeLast=0;collapsible=0;marginBottom=0;swimlaneFillColor=#ffffff;rounded=1;" vertex="1" parent="1">
          <mxGeometry x="1113.75" y="310" width="112.5" height="30" as="geometry" />
        </mxCell>
        <mxCell id="8VUWCOIowGorcXHwF0OQ-37" value="Host Data" style="swimlane;fontStyle=0;childLayout=stackLayout;horizontal=1;startSize=20;fillColor=#ffffff;horizontalStack=0;resizeParent=1;resizeParentMax=0;resizeLast=0;collapsible=0;marginBottom=0;swimlaneFillColor=#ffffff;rounded=1;" vertex="1" parent="1">
          <mxGeometry x="983.75" y="310" width="112.5" height="30" as="geometry" />
        </mxCell>
        <mxCell id="8VUWCOIowGorcXHwF0OQ-38" value="FAQ Data" style="swimlane;fontStyle=0;childLayout=stackLayout;horizontal=1;startSize=20;fillColor=#ffffff;horizontalStack=0;resizeParent=1;resizeParentMax=0;resizeLast=0;collapsible=0;marginBottom=0;swimlaneFillColor=#ffffff;rounded=1;" vertex="1" parent="1">
          <mxGeometry x="727.5" y="310" width="112.5" height="30" as="geometry" />
        </mxCell>
        <mxCell id="8VUWCOIowGorcXHwF0OQ-39" value="Calendar Data" style="swimlane;fontStyle=0;childLayout=stackLayout;horizontal=1;startSize=20;fillColor=#ffffff;horizontalStack=0;resizeParent=1;resizeParentMax=0;resizeLast=0;collapsible=0;marginBottom=0;swimlaneFillColor=#ffffff;rounded=1;" vertex="1" parent="1">
          <mxGeometry x="853.75" y="310" width="112.5" height="30" as="geometry" />
        </mxCell>
      </root>
    </mxGraphModel>
  </diagram>
</mxfile>
